<svg xmlns="http://www.w3.org/2000/svg" version="1.1" xmlns:xlink="http://www.w3.org/1999/xlink" xmlns:svgjs="http://svgjs.dev/svgjs" viewBox="0 0 800 800" opacity="1"><defs><symbol id="bbburst-shape-1" viewBox="0 0 194 167"><path d="m97 0 96.129 166.5H.871L97 0Z"></path></symbol><symbol id="bbburst-shape-2" viewBox="0 0 126 115"><path d="m63 0 62.77 43.877-23.976 70.996H24.206L.23 43.877 63 0Z"></path></symbol><symbol id="bbburst-shape-3" viewBox="0 0 131 127"><path d="m66 0 66 63.5L66 127 0 63.5 66 0Z"></path></symbol><symbol id="bbburst-shape-4" viewBox="0 0 149 143"><path d="M71.647 2.781c.898-2.764 4.808-2.764 5.706 0l15.445 47.534a3 3 0 0 0 2.853 2.073h49.98c2.906 0 4.115 3.719 1.764 5.427L106.96 87.193a2.999 2.999 0 0 0-1.09 3.354l15.445 47.534c.898 2.764-2.266 5.062-4.617 3.354l-40.435-29.378a3 3 0 0 0-3.526 0l-40.435 29.378c-2.351 1.708-5.515-.59-4.617-3.354L43.13 90.547a3 3 0 0 0-1.09-3.354L1.605 57.815c-2.35-1.708-1.142-5.427 1.764-5.427h49.98a3 3 0 0 0 2.853-2.073L71.647 2.781Z"></path></symbol><symbol id="bbburst-shape-5" viewBox="0 0 145 145"><circle cx="72.5" cy="72.5" r="72.5"></circle></symbol><symbol id="bbburst-shape-6" viewBox="0 0 133 116"><path d="M59.7487 10.2513c-13.6683-13.66839-35.8291-13.66839-49.4974 0-13.66839 13.6683-13.66839 35.8291 0 49.4974l49.4974-49.4974ZM66.5 66.5 41.7513 91.2487 66.5 115.997l24.7487-24.7483L66.5 66.5Zm56.249-6.7513c13.668-13.6683 13.668-35.8291 0-49.4974-13.669-13.66839-35.8294-13.66839-49.4977 0l49.4977 49.4974Zm-112.4977 0 31.5 31.5 49.4974-49.4974-31.5-31.5-49.4974 49.4974Zm80.9974 31.5 31.5003-31.5-49.4977-49.4974-31.5 31.5 49.4974 49.4974Z"></path></symbol><symbol id="bbburst-shape-7" viewBox="0 0 139 124"><path fill-rule="evenodd" clip-rule="evenodd" d="M70.1641 15.0917C54.6093.764854 37.8293-2.10782 24.4032 2.82615 10.3804 7.97941.763366 21.4591 1.00047 37.0608c.1068 7.0273 2.86132 13.7317 7.0039 20.2001C12.1442 63.7249 17.853 70.2322 24.25 76.9024c3.8209 3.9842 7.8871 8.0312 12.0767 12.201h.0001c10.0335 9.9862 20.7748 20.6766 30.5497 32.8956 1.38 1.725 3.8972 2.005 5.6223.624.6706-.536 1.1228-1.244 1.3439-2.011 9.5768-11.748 20.0328-22.0735 29.8163-31.7351 4.19-4.1373 8.256-8.1528 12.078-12.1062 6.396-6.6176 12.106-13.0752 16.247-19.4911 4.144-6.4196 6.905-13.0811 7.012-20.0691.237-15.5124-9.399-28.8902-23.411-33.99923-13.32-4.85681-29.9542-2.08621-45.4209 11.88043Zm-3.7351 7.4919C52.1278 8.44857 37.6826 6.46918 27.1626 10.3352 16.2859 14.3323 8.8148 24.7824 8.99955 36.9392c.07575 4.9844 2.03755 10.2234 5.74165 16.0072 3.707 5.7881 8.9752 11.8418 15.2827 18.4187 3.5798 3.7328 7.4978 7.6329 11.6 11.7163 9.0476 9.0063 18.9911 18.9046 28.1786 29.8666 9.2999-11.068 19.4036-21.0473 28.5839-30.1144l.0007-.0006c4.1019-4.0508 8.0189-7.9196 11.5979-11.6222 6.307-6.5252 11.573-12.5298 15.278-18.2697 3.703-5.7362 5.658-10.924 5.734-15.8531.184-12.0276-7.267-22.3914-18.153-26.3608-10.71-3.90518-25.4722-1.80041-40.0023 12.867-1.5547 1.5694-4.0874 1.5813-5.6568.0265-.3146-.3116-.5666-.6625-.7559-1.0371Z"></path></symbol><symbol id="bbburst-shape-8" viewBox="0 0 87 168"><path d="m12 12 31.2546 18.0749c16.4102 9.4902 20.014 31.6325 7.4603 45.8369L36.3296 92.1884c-12.5684 14.2206-8.9394 36.3916 7.5068 45.8636L75 156" stroke-width="14" stroke-linecap="round" stroke-linejoin="round"></path></symbol><symbol id="bbburst-shape-9" viewBox="0 0 182 172"><path d="M13.5809 69.845 91 13.5967l77.419 56.2483-29.571 91.012H43.1524L13.5809 69.845Z" stroke-width="22"></path></symbol><symbol id="bbburst-shape-10" viewBox="0 0 145 145"><circle cx="72.5" cy="72.5" r="61.5" fill="none" stroke-width="22"></circle></symbol><symbol id="bbburst-shape-11" viewBox="0 0 194 167"><path d="M10.398 161 97 11l86.603 150H10.397Z" stroke-width="11"></path></symbol><symbol id="bbburst-shape-12" viewBox="0 0 170 151"><path d="M69.3728 54.2122 85 10.0031l15.627 44.2091c1.413 3.9958 5.19 6.6672 9.428 6.6673h49.312l-39.149 26.1447c-3.803 2.5401-5.399 7.3367-3.875 11.6488l15.179 42.94-40.9683-27.36c-3.3621-2.245-7.7453-2.245-11.1074 0l-40.9682 27.36 15.1785-42.94c1.5243-4.3121-.0712-9.1087-3.8746-11.6488L10.6333 60.8795h49.3112c4.2381-.0001 8.0159-2.6715 9.4283-6.6673Z" stroke-width="12"></path></symbol><symbol id="bbburst-shape-13" viewBox="0 0 159 159"><path stroke-width="22" d="M11 11h137v137H11z"></path></symbol><symbol id="bbburst-shape-14" viewBox="0 0 185 109"><path d="M168 16.5C168 58.1975 134.197 92 92.5 92 50.8025 92 17 58.1975 17 16.5" stroke-width="33" stroke-linecap="round"></path></symbol></defs><use xlink:href="#bbburst-shape-11" width="10.308125195905134" opacity="0.803129403184203" transform="matrix(0.9269833449145769,0.37510249032895326,-0.37510249032895326,0.9269833449145769,576.406993278941,-55.80560389870686)" fill="none" stroke="#2c2891"></use><use xlink:href="#bbburst-shape-6" width="7.209401884493968" opacity="0.9254267891604304" transform="matrix(0.8565485553615506,-0.5160664417573,0.5160664417573,0.8565485553615506,159.43682830452622,71.97249000687128)" fill="#ff5c58"></use><use xlink:href="#bbburst-shape-14" width="31.697056336663415" opacity="0.35101515695254915" transform="matrix(0.8953733441676243,-0.4453162635185079,0.4453162635185079,0.8953733441676243,497.82305163997137,82.39972359945932)" fill="none" stroke="#ff5c58"></use><use xlink:href="#bbburst-shape-3" width="10.683715135953623" opacity="0.7680882871025659" transform="matrix(0.8947672968741242,0.446532736139886,-0.446532736139886,0.8947672968741242,505.3110650079255,-39.05532467107088)" fill="#2c2891"></use><use xlink:href="#bbburst-shape-8" width="10.580138258127247" opacity="0.784127937552104" transform="matrix(0.7529027588516152,0.6581317768605514,-0.6581317768605514,0.7529027588516152,669.1394709905561,191.99709624298555)" fill="none" stroke="#ff5c58"></use><use xlink:href="#bbburst-shape-2" width="6.69263421930507" opacity="0.8947579480926402" transform="matrix(0.833049872912965,0.5531978933796593,-0.5531978933796593,0.833049872912965,625.182480516595,111.81530287495752)" fill="#ff5c58"></use><use xlink:href="#bbburst-shape-11" width="8.17016312445438" opacity="0.9162095713211414" transform="matrix(0.739843987011359,0.6727784738553516,-0.6727784738553516,0.739843987011359,688.376813012738,70.77096105177037)" fill="none" stroke="#ff5c58"></use><use xlink:href="#bbburst-shape-13" width="9.825732186808015" opacity="0.8420815315047985" transform="matrix(0.7463535057141807,0.6655497310555781,-0.6655497310555781,0.7463535057141807,718.6660403264318,54.58449990251739)" fill="none" stroke="#00a19d"></use><use xlink:href="#bbburst-shape-12" width="9.165348167409663" opacity="0.7445706146830804" transform="matrix(0.940100188470953,0.340898277550472,-0.340898277550472,0.940100188470953,638.9181876628824,-19.95685457998843)" fill="none" stroke="#2c2891"></use><use xlink:href="#bbburst-shape-8" width="18.46697524597261" opacity="0.5708726643485927" transform="matrix(0.8164331791067401,-0.5774399224626416,0.5774399224626416,0.8164331791067401,329.4296936609533,-16.55767082924274)" fill="none" stroke="#ffbd9b"></use><use xlink:href="#bbburst-shape-10" width="33.783888308959064" opacity="0.1455243178753931" transform="matrix(0.9285408976886049,0.3712301190900865,-0.3712301190900865,0.9285408976886049,650.6750269899418,-343.6902075044911)" fill="none" stroke="#ff5c58"></use><use xlink:href="#bbburst-shape-1" width="20.577863927342463" opacity="0.47738147805212083" transform="matrix(0.9936076208236017,0.11288886500121162,-0.11288886500121162,0.9936076208236017,581.0113878728478,-182.88472808494166)" fill="#00a19d"></use><use xlink:href="#bbburst-shape-12" width="7.2159301192304435" opacity="0.8228025466086049" transform="matrix(0.8671924867056813,0.49797308260709905,-0.49797308260709905,0.8671924867056813,520.8052418095069,24.971838636038626)" fill="none" stroke="#00a19d"></use><use xlink:href="#bbburst-shape-10" width="29.973044115812677" opacity="0.20866925376921608" transform="matrix(0.798698830470454,-0.6017309849136315,0.6017309849136315,0.798698830470454,494.20224148250634,170.10823858877768)" fill="none" stroke="#00a19d"></use><use xlink:href="#bbburst-shape-7" width="22.362640090679687" opacity="0.27279696387081864" transform="matrix(0.9978930991972236,0.0648796006041969,-0.0648796006041969,0.9978930991972236,434.5757385785281,326.7428644321551)" fill="#ff5c58"></use><use xlink:href="#bbburst-shape-7" width="36.84590678113288" opacity="0.11908999829372824" transform="matrix(0.9768584965348441,0.213886600206006,-0.213886600206006,0.9768584965348441,184.51194336461137,-272.38731515501263)" fill="#ffa6d5"></use><use xlink:href="#bbburst-shape-6" width="11.181361186129179" opacity="0.6892952215090381" transform="matrix(0.9975041278238218,0.07060817923184652,-0.07060817923184652,0.9975041278238218,296.61056400788567,-59.88373493671605)" fill="#ffbd9b"></use><use xlink:href="#bbburst-shape-3" width="26.318862578729878" opacity="0.3598083308263669" transform="matrix(0.889991748296799,-0.455976630940235,0.455976630940235,0.889991748296799,440.3066366048399,217.3938963019097)" fill="#2c2891"></use><use xlink:href="#bbburst-shape-6" width="22.814988111349127" opacity="0.16755943651278993" transform="matrix(0.9924901871637827,-0.12232427552861105,0.12232427552861105,0.9924901871637827,713.9568399498155,21.486484360883367)" fill="#ffa6d5"></use><use xlink:href="#bbburst-shape-13" width="7.1904543244515935" opacity="0.9014438643146312" transform="matrix(0.902116205988811,-0.43149316436341495,0.43149316436341495,0.902116205988811,196.9386406624688,5.690912033915652)" fill="none" stroke="#2c2891"></use><use xlink:href="#bbburst-shape-7" width="14.786759422145334" opacity="0.6441210624594198" transform="matrix(0.9116339150065207,0.4110031690995629,-0.4110031690995629,0.9116339150065207,715.7426935662791,57.62280700386094)" fill="#2c2891"></use><use xlink:href="#bbburst-shape-9" width="11.899417682743596" opacity="0.6692188753866841" transform="matrix(0.9648175202581759,0.2629204301739677,-0.2629204301739677,0.9648175202581759,455.9926325875609,-129.93556397841405)" fill="none" stroke="#ff5c58"></use><use xlink:href="#bbburst-shape-9" width="8.091370792974871" opacity="0.8336948933297899" transform="matrix(0.9579012330894238,-0.287097940859494,0.287097940859494,0.9579012330894238,350.3361662474772,46.76642767702816)" fill="none" stroke="#ff5c58"></use><use xlink:href="#bbburst-shape-3" width="18.060089674628777" opacity="0.43351456010593736" transform="matrix(0.7969825916067362,0.6040022753895967,-0.6040022753895967,0.7969825916067362,694.0747769655189,323.53421581103106)" fill="#00a19d"></use><use xlink:href="#bbburst-shape-14" width="25.517828700338374" opacity="0.4204119804193095" transform="matrix(0.814840089878156,0.5796858010399759,-0.5796858010399759,0.814840089878156,386.69348632675394,-46.92603076604928)" fill="none" stroke="#2c2891"></use><use xlink:href="#bbburst-shape-8" width="24.783208539160455" opacity="0.3871308043311158" transform="matrix(0.8488469031168181,-0.5286387566845503,0.5286387566845503,0.8488469031168181,-35.74640223064222,-107.23544362875018)" fill="none" stroke="#00a19d"></use><use xlink:href="#bbburst-shape-6" width="14.961973250558092" opacity="0.7072002478506987" transform="matrix(0.9764156680123443,-0.21589915066995402,0.21589915066995402,0.9764156680123443,236.57011737237457,-100.72491365586865)" fill="#ffa6d5"></use><use xlink:href="#bbburst-shape-8" width="8.432553802720635" opacity="0.7852525714061095" transform="matrix(0.9765190217948189,0.21543119568180003,-0.21543119568180003,0.9765190217948189,387.4714272017603,28.295477350126703)" fill="none" stroke="#ff5c58"></use><use xlink:href="#bbburst-shape-10" width="9.564432307545347" opacity="0.7425551243822575" transform="matrix(0.9861536191555469,0.1658343734767213,-0.1658343734767213,0.9861536191555469,492.87036375628713,116.30060243677946)" fill="none" stroke="#2c2891"></use><use xlink:href="#bbburst-shape-4" width="6.173656585367599" opacity="0.8324539147415257" transform="matrix(0.8524546823023869,0.5228011233927645,-0.5228011233927645,0.8524546823023869,655.215317939538,114.94155580213408)" fill="#00a19d"></use><use xlink:href="#bbburst-shape-5" width="15.995124537288241" opacity="0.6237817812499148" transform="matrix(0.9750386051776895,0.22203539900913485,-0.22203539900913485,0.9750386051776895,311.88756764996646,15.783270505433848)" fill="#2c2891"></use><use xlink:href="#bbburst-shape-2" width="20.91682445745895" opacity="0.009884050887455587" transform="matrix(0.9061308993125711,-0.4229973916125147,0.4229973916125147,0.9061308993125711,-26.514246248645065,412.23848750560455)" fill="#00a19d"></use><use xlink:href="#bbburst-shape-7" width="26.63510648344458" opacity="0.41174716303418113" transform="matrix(0.9832957756335488,-0.1820148829662503,0.1820148829662503,0.9832957756335488,430.7103501312325,246.71258687307704)" fill="#00a19d"></use><use xlink:href="#bbburst-shape-8" width="30.951161152148654" opacity="0.31531085754771127" transform="matrix(0.992364760858657,0.12333767229010137,-0.12333767229010137,0.992364760858657,138.37615386103028,-85.75463371990071)" fill="none" stroke="#ffa6d5"></use><use xlink:href="#bbburst-shape-2" width="17.227420519961257" opacity="0.6088986614098912" transform="matrix(0.8514225287444179,-0.5244803881428369,0.5244803881428369,0.8514225287444179,265.3846809933779,219.41407311209434)" fill="#2c2891"></use><use xlink:href="#bbburst-shape-13" width="13.918786332190852" opacity="0.6429501979362864" transform="matrix(0.9984839031954319,0.05504448255379794,-0.05504448255379794,0.9984839031954319,284.1634938657573,-92.93986494151108)" fill="none" stroke="#2c2891"></use><use xlink:href="#bbburst-shape-7" width="11.79738739312863" opacity="0.771920437710961" transform="matrix(0.9999546407553199,0.00952451741029438,-0.00952451741029438,0.9999546407553199,315.7667968949256,61.54757960069526)" fill="#ffa6d5"></use><use xlink:href="#bbburst-shape-13" width="15.704192115123107" opacity="0.5669211558741623" transform="matrix(0.8787126488412823,-0.4773511084792171,0.4773511084792171,0.8787126488412823,11.946516052887205,94.6807188296221)" fill="none" stroke="#2c2891"></use><use xlink:href="#bbburst-shape-9" width="26.63143198026396" opacity="0.15183579043490836" transform="matrix(0.8961012492894889,0.4438496941779023,-0.4438496941779023,0.8961012492894889,483.4215152786222,-337.2142226811004)" fill="none" stroke="#2c2891"></use><use xlink:href="#bbburst-shape-11" width="8.613709412813096" opacity="0.8436950516939727" transform="matrix(0.8807478083069409,0.47358557638775284,-0.47358557638775284,0.8807478083069409,515.8400305795416,37.328624282695955)" fill="none" stroke="#00a19d"></use><use xlink:href="#bbburst-shape-4" width="7.657334811930032" opacity="0.7826789736416334" transform="matrix(0.8249171866831149,-0.5652536024784053,0.5652536024784053,0.8249171866831149,148.46964959167764,-23.02094052419443)" fill="#ffa6d5"></use><use xlink:href="#bbburst-shape-3" width="11.668255069195814" opacity="0.6307713278721618" transform="matrix(0.9744944204095768,-0.2244117300646358,0.2244117300646358,0.9744944204095768,190.14167376923072,132.05138856373873)" fill="#00a19d"></use><use xlink:href="#bbburst-shape-4" width="27.76130511327099" opacity="0.012598024556597531" transform="matrix(0.9966246768392854,0.08209295654920717,-0.08209295654920717,0.9966246768392854,666.0197354938306,369.57545098485804)" fill="#00a19d"></use><use xlink:href="#bbburst-shape-1" width="24.4888085633801" opacity="0.16356869725685264" transform="matrix(0.9656082267576139,0.26000144695369765,-0.26000144695369765,0.9656082267576139,552.8809007992274,382.0690709639274)" fill="#ffbd9b"></use><use xlink:href="#bbburst-shape-13" width="5.951824282455369" opacity="0.9153601630140618" transform="matrix(0.9999984980762462,0.0017331604806690036,-0.0017331604806690036,0.9999984980762462,429.2504794642378,21.35785070256611)" fill="none" stroke="#00a19d"></use><use xlink:href="#bbburst-shape-14" width="7.920881685237104" opacity="0.8667535505106705" transform="matrix(0.8470033733345875,0.5315875144882819,-0.5315875144882819,0.8470033733345875,611.8582527970168,-0.8028319660898546)" fill="none" stroke="#ffbd9b"></use><use xlink:href="#bbburst-shape-7" width="29.255126537349962" opacity="0.3346015724839112" transform="matrix(0.7480381425204186,-0.6636557370614693,0.6636557370614693,0.7480381425204186,-7.979894280214523,379.5679225506065)" fill="#ff5c58"></use><use xlink:href="#bbburst-shape-13" width="18.977014663701073" opacity="0.4872224364443284" transform="matrix(0.9930212565905451,-0.11793550762740938,0.11793550762740938,0.9930212565905451,518.4973591145995,-146.3813997634733)" fill="none" stroke="#00a19d"></use><use xlink:href="#bbburst-shape-3" width="8.632065487297474" opacity="0.8222616465561323" transform="matrix(0.9918556694082233,0.1273669151026478,-0.1273669151026478,0.9918556694082233,393.3912964378567,-56.9825399825242)" fill="#ffa6d5"></use><use xlink:href="#bbburst-shape-2" width="9.165142609535645" opacity="0.8571005752254215" transform="matrix(0.780442143049453,0.6252280074919685,-0.6252280074919685,0.780442143049453,672.3977828213634,143.82601122790732)" fill="#2c2891"></use><use xlink:href="#bbburst-shape-1" width="20.912105814579505" opacity="0.5772548681746432" transform="matrix(0.9836515299892807,0.18008239100408197,-0.18008239100408197,0.9836515299892807,643.6815070088661,60.25137587258206)" fill="#ffa6d5"></use><use xlink:href="#bbburst-shape-7" width="22.246669332575454" opacity="0.4768205405385181" transform="matrix(0.9826314743999953,-0.18556773835581278,0.18556773835581278,0.9826314743999953,529.4006713001058,105.75757073600835)" fill="#00a19d"></use><use xlink:href="#bbburst-shape-11" width="5.118171670273119" opacity="0.8612104008252073" transform="matrix(0.9889559195491601,0.1482099496952724,-0.1482099496952724,0.9889559195491601,394.83629264299265,12.082278780152762)" fill="none" stroke="#2c2891"></use><use xlink:href="#bbburst-shape-1" width="7.560331181565389" opacity="0.7928909119765932" transform="matrix(0.9263928418520484,-0.37655849819820253,0.37655849819820253,0.9263928418520484,326.44042390955644,-15.984267815568273)" fill="#ffa6d5"></use><use xlink:href="#bbburst-shape-13" width="21.902205190891998" opacity="0.48313830185010165" transform="matrix(0.9965378393324165,0.08314045211976476,-0.08314045211976476,0.9965378393324165,606.9515828442536,141.9549050555858)" fill="none" stroke="#2c2891"></use><use xlink:href="#bbburst-shape-6" width="20.96640338636721" opacity="0.6023520820610948" transform="matrix(0.942738695761647,-0.333532234594542,0.333532234594542,0.942738695761647,372.61889626692926,-109.92147627702707)" fill="#ffa6d5"></use><use xlink:href="#bbburst-shape-2" width="6.519755543536186" opacity="0.9062350501755322" transform="matrix(0.9989069925647235,0.046742060345040366,-0.046742060345040366,0.9989069925647235,378.73163240021574,-20.516282477586117)" fill="#2c2891"></use><use xlink:href="#bbburst-shape-1" width="8.87058574936908" opacity="0.8700978426595531" transform="matrix(0.946983949158201,-0.3212808740599689,0.3212808740599689,0.946983949158201,230.13972936695862,67.77393685764088)" fill="#00a19d"></use><use xlink:href="#bbburst-shape-10" width="28.855587309088072" opacity="0.1885716594534076" transform="matrix(0.9340186951718158,-0.3572241272220266,0.3572241272220266,0.9340186951718158,-121.2660411270569,44.84367677368073)" fill="none" stroke="#00a19d"></use><use xlink:href="#bbburst-shape-2" width="34.784059174352294" opacity="0.1429538670355014" transform="matrix(0.7352649683555281,-0.677779777146784,0.677779777146784,0.7352649683555281,-242.6590290549952,-23.815311930651262)" fill="#ffbd9b"></use><use xlink:href="#bbburst-shape-3" width="13.891690495785426" opacity="0.6321789316326245" transform="matrix(0.9316718148110424,-0.3633010177341905,0.3633010177341905,0.9316718148110424,94.75069876538478,92.02386779817613)" fill="#2c2891"></use><use xlink:href="#bbburst-shape-14" width="30.069713938539795" opacity="0.37902826459314354" transform="matrix(0.9494364398048405,-0.31395930750769196,0.31395930750769196,0.9494364398048405,276.13538287948427,-253.99559670324322)" fill="none" stroke="#ffa6d5"></use><use xlink:href="#bbburst-shape-4" width="13.60764914778178" opacity="0.6890173137757369" transform="matrix(0.9187573299034124,0.39482270546253073,-0.39482270546253073,0.9187573299034124,411.84806120394023,24.09787507325865)" fill="#ffa6d5"></use><use xlink:href="#bbburst-shape-3" width="6.043278491465488" opacity="0.9422617041250285" transform="matrix(0.999297360514918,0.03748046515076753,-0.03748046515076753,0.999297360514918,387.6421033122707,-9.010267011578776)" fill="#ffa6d5"></use><use xlink:href="#bbburst-shape-7" width="6.356505846631113" opacity="0.8718746549544707" transform="matrix(0.9170872159211542,0.39868664185546326,-0.39868664185546326,0.9170872159211542,595.8354252166223,74.07843890342116)" fill="#2c2891"></use><use xlink:href="#bbburst-shape-14" width="5.676540959464171" opacity="0.9669658911466125" transform="matrix(0.9959572736099387,0.08982822019531302,-0.08982822019531302,0.9959572736099387,425.4174498989881,-11.354159205272708)" fill="none" stroke="#ffbd9b"></use><use xlink:href="#bbburst-shape-5" width="12.217479506145102" opacity="0.7228659846941554" transform="matrix(0.942960302118859,0.3329051946544396,-0.3329051946544396,0.942960302118859,630.1920601820771,91.39964140091377)" fill="#ffa6d5"></use><use xlink:href="#bbburst-shape-11" width="27.30146955324785" opacity="0.27522342288600354" transform="matrix(0.830660301878413,0.5567795460352901,-0.5567795460352901,0.830660301878413,291.3870031046525,121.94981620180567)" fill="none" stroke="#ffa6d5"></use><use xlink:href="#bbburst-shape-3" width="18.438695807100082" opacity="0.6553019716149552" transform="matrix(0.7493769376390097,-0.6621436440341173,0.6621436440341173,0.7493769376390097,271.95983006901935,48.19343164568414)" fill="#00a19d"></use><use xlink:href="#bbburst-shape-11" width="6.558502062733475" opacity="0.8668528983710075" transform="matrix(0.9796651393457119,-0.20063951443010167,0.20063951443010167,0.9796651393457119,375.3353252555107,20.114397302937164)" fill="none" stroke="#ffa6d5"></use><use xlink:href="#bbburst-shape-2" width="41.79220289594605" opacity="-0.09864874184658556" transform="matrix(0.9930678276713599,-0.11754271412591331,0.11754271412591331,0.9930678276713599,675.948909749993,-350.1139962411474)" fill="#ffa6d5"></use><use xlink:href="#bbburst-shape-14" width="29.691037293054062" opacity="0.014582857818876804" transform="matrix(0.8209979401260029,0.5709311537382246,-0.5709311537382246,0.8209979401260029,982.1985631619316,313.46546260031676)" fill="none" stroke="#00a19d"></use><use xlink:href="#bbburst-shape-14" width="12.637206928068625" opacity="0.7100786677751325" transform="matrix(0.7763266242554526,-0.6303308436623845,0.6303308436623845,0.7763266242554526,270.32970391681033,121.77296211115242)" fill="none" stroke="#00a19d"></use><use xlink:href="#bbburst-shape-3" width="17.371867479101656" opacity="0.5833140082999915" transform="matrix(0.9979388972632822,0.0641713123517374,-0.0641713123517374,0.9979388972632822,577.2826451979965,97.46322015877251)" fill="#2c2891"></use><use xlink:href="#bbburst-shape-10" width="23.724818196945822" opacity="0.1312715862341759" transform="matrix(0.9955813031097283,0.09390350844529372,-0.09390350844529372,0.9955813031097283,120.60655284637083,245.01219652919661)" fill="none" stroke="#ffa6d5"></use><use xlink:href="#bbburst-shape-10" width="6.033536815608141" opacity="0.9203275564179346" transform="matrix(0.9941436224175854,0.10806691448561602,-0.10806691448561602,0.9941436224175854,429.05862268831856,36.08501949530989)" fill="none" stroke="#ffbd9b"></use><use xlink:href="#bbburst-shape-1" width="9.236537659170189" opacity="0.7728752996532972" transform="matrix(0.8009232145592166,-0.5987670702202411,0.5987670702202411,0.8009232145592166,212.60663924839145,-3.220809697354923)" fill="#00a19d"></use><use xlink:href="#bbburst-shape-6" width="18.55855248247602" opacity="0.46958363446243423" transform="matrix(0.9918910731769951,-0.12709090821844365,0.12709090821844365,0.9918910731769951,154.7125794708112,154.93952810417733)" fill="#2c2891"></use><use xlink:href="#bbburst-shape-13" width="6.605293121445687" opacity="0.9170602356243104" transform="matrix(0.9732109864130876,0.22991384456979772,-0.22991384456979772,0.9732109864130876,451.51754809155284,7.379246630547925)" fill="none" stroke="#ffa6d5"></use><use xlink:href="#bbburst-shape-13" width="9.86602040372204" opacity="0.8188813113131319" transform="matrix(0.9507458504102392,0.30997149534709,-0.30997149534709,0.9507458504102392,502.8219861770406,97.99316849931711)" fill="none" stroke="#00a19d"></use><use xlink:href="#bbburst-shape-5" width="6.103426873672175" opacity="0.9014285169268411" transform="matrix(0.9964844921139768,0.08377742521914693,-0.08377742521914693,0.9964844921139768,473.779588001813,10.733672361580375)" fill="#ffa6d5"></use><use xlink:href="#bbburst-shape-6" width="10.4372487020675" opacity="0.8388061553558896" transform="matrix(0.9036299449646447,-0.4283140466564144,0.4283140466564144,0.9036299449646447,191.13242576497143,105.46781353794273)" fill="#00a19d"></use><use xlink:href="#bbburst-shape-11" width="8.37451290104233" opacity="0.8245751099366512" transform="matrix(0.9997460242339478,0.022536349048034365,-0.022536349048034365,0.9997460242339478,347.32966627594,53.985692980355054)" fill="none" stroke="#ffa6d5"></use><use xlink:href="#bbburst-shape-7" width="21.159693623006415" opacity="0.47131738737217166" transform="matrix(0.7125313101420038,0.7016403153092898,-0.7016403153092898,0.7125313101420038,906.4753294896843,153.56120427167173)" fill="#ffbd9b"></use><use xlink:href="#bbburst-shape-8" width="9.57280030299143" opacity="0.7267571604978388" transform="matrix(0.8571635706880069,0.5150442826450812,-0.5150442826450812,0.8571635706880069,683.9909106626271,146.22550204313592)" fill="none" stroke="#ffbd9b"></use><use xlink:href="#bbburst-shape-9" width="29.595050265260983" opacity="0.0419830981160243" transform="matrix(0.98577870172411,0.16804865732021854,-0.16804865732021854,0.98577870172411,91.90731373454686,-233.01819125324093)" fill="none" stroke="#ffa6d5"></use><use xlink:href="#bbburst-shape-12" width="11.481183860817971" opacity="0.7457154979126936" transform="matrix(0.974405656472896,-0.22479683412722826,0.22479683412722826,0.974405656472896,190.28853489291487,18.81672441490275)" fill="none" stroke="#ffbd9b"></use><use xlink:href="#bbburst-shape-6" width="21.112441642876686" opacity="0.4160598632178434" transform="matrix(0.9880711381628564,0.15399813612364732,-0.15399813612364732,0.9880711381628564,699.2834188117899,-83.39220655225415)" fill="#ffbd9b"></use><use xlink:href="#bbburst-shape-3" width="31.74155725318961" opacity="0.09575762052878378" transform="matrix(0.99693905349783,-0.07818262985376499,0.07818262985376499,0.99693905349783,81.79186857613581,306.0175596035781)" fill="#ffbd9b"></use><use xlink:href="#bbburst-shape-8" width="29.498688403178427" opacity="0.3234940094826312" transform="matrix(0.977035048092175,-0.21307865871438458,0.21307865871438458,0.977035048092175,510.85582211377385,-207.5958916822343)" fill="none" stroke="#ff5c58"></use><use xlink:href="#bbburst-shape-9" width="12.651857659264802" opacity="0.6949145038042549" transform="matrix(0.7277028783980263,-0.6858924994277363,0.6858924994277363,0.7277028783980263,141.63397235401675,-22.530435494340225)" fill="none" stroke="#ff5c58"></use><use xlink:href="#bbburst-shape-8" width="11.20272232978743" opacity="0.7212219699387336" transform="matrix(0.8785547436718251,-0.47764166733204266,0.47764166733204266,0.8785547436718251,309.5866099142213,-16.52473766741491)" fill="none" stroke="#2c2891"></use><use xlink:href="#bbburst-shape-12" width="32.323533146802355" opacity="0.13574188067483328" transform="matrix(0.9897789557075624,0.14261002362543554,-0.14261002362543554,0.9897789557075624,67.75898847602357,110.8369448256231)" fill="none" stroke="#ffbd9b"></use><use xlink:href="#bbburst-shape-7" width="18.877108585836165" opacity="0.13482460339065672" transform="matrix(0.9729840615311967,-0.23087229371723336,0.23087229371723336,0.9729840615311967,671.8692132255675,-96.9956447473171)" fill="#ffa6d5"></use><use xlink:href="#bbburst-shape-10" width="16.95657558715316" opacity="0.5690711610754384" transform="matrix(0.9655865784120287,-0.260081832488452,0.260081832488452,0.9655865784120287,481.552542513789,23.498253645658792)" fill="none" stroke="#ffa6d5"></use><use xlink:href="#bbburst-shape-13" width="20.725278375905496" opacity="0.4795262526094144" transform="matrix(0.8316421798294844,0.5553118805936565,-0.5553118805936565,0.8316421798294844,847.281726685535,47.268346185803296)" fill="none" stroke="#ffbd9b"></use><use xlink:href="#bbburst-shape-7" width="7.427398781439765" opacity="0.802656657255371" transform="matrix(0.9798355809618718,0.19980549111851548,-0.19980549111851548,0.9798355809618718,565.0613771071412,7.71885764307757)" fill="#ff5c58"></use><use xlink:href="#bbburst-shape-11" width="9.135578253568866" opacity="0.7862921292228282" transform="matrix(0.9958740117272689,-0.09074664052313809,0.09074664052313809,0.9958740117272689,443.9694139332837,47.253837921236595)" fill="none" stroke="#ff5c58"></use><use xlink:href="#bbburst-shape-9" width="11.139726941606932" opacity="0.7902473796958418" transform="matrix(0.8285861279243905,-0.5598616155901971,0.5598616155901971,0.8285861279243905,117.81177861238467,149.32441889608288)" fill="none" stroke="#ffa6d5"></use><use xlink:href="#bbburst-shape-13" width="24.139758429638093" opacity="0.4472370291046388" transform="matrix(0.8511673411277959,-0.5248944250012934,0.5248944250012934,0.8511673411277959,393.9574478062261,-60.608544282380706)" fill="none" stroke="#ffa6d5"></use><use xlink:href="#bbburst-shape-9" width="5.196569889220045" opacity="0.9336657266094505" transform="matrix(0.922092871733573,-0.3869686497613631,0.3869686497613631,0.922092871733573,268.7297341704402,17.342128797648684)" fill="none" stroke="#ffa6d5"></use><use xlink:href="#bbburst-shape-13" width="9.069821382198882" opacity="0.85153942826776" transform="matrix(0.9965386188897571,-0.08313110766310859,0.08313110766310859,0.9965386188897571,330.34199349532884,-56.94510147000341)" fill="none" stroke="#00a19d"></use><use xlink:href="#bbburst-shape-5" width="19.83997439613261" opacity="0.5175054818541907" transform="matrix(0.994422749731008,-0.10546750597895553,0.10546750597895553,0.994422749731008,465.6006366393582,185.7603635925514)" fill="#ffbd9b"></use><use xlink:href="#bbburst-shape-3" width="6.835318567136711" opacity="0.8824746878496195" transform="matrix(0.8946558138982387,0.4467560572147625,-0.4467560572147625,0.8946558138982387,595.9197212747254,-8.236797240599003)" fill="#2c2891"></use><use xlink:href="#bbburst-shape-11" width="6.89485897265339" opacity="0.8754423248608788" transform="matrix(0.9894791475358979,-0.14467555630317347,0.14467555630317347,0.9894791475358979,387.3627221842743,32.44380746085261)" fill="none" stroke="#ffa6d5"></use><use xlink:href="#bbburst-shape-6" width="10.484579672483314" opacity="0.7490777769050068" transform="matrix(0.8282452694480185,0.5603657498785765,-0.5603657498785765,0.8282452694480185,732.6329938804536,70.17890301155234)" fill="#2c2891"></use><use xlink:href="#bbburst-shape-13" width="6.8893842943784165" opacity="0.9660514004286209" transform="matrix(0.9952202355481649,0.09765594070744171,-0.09765594070744171,0.9952202355481649,450.23926656868883,-2.9048182543641587)" fill="none" stroke="#2c2891"></use><use xlink:href="#bbburst-shape-7" width="22.603944298900636" opacity="0.4641827847814929" transform="matrix(0.822025937701571,0.5694500485080785,-0.5694500485080785,0.822025937701571,599.3430179740892,305.0627757650076)" fill="#ff5c58"></use><use xlink:href="#bbburst-shape-10" width="13.322243446968177" opacity="0.6699536961308201" transform="matrix(0.9992330712770567,-0.039156982343132585,0.039156982343132585,0.9992330712770567,403.45614366109123,146.834794048321)" fill="none" stroke="#ffbd9b"></use><use xlink:href="#bbburst-shape-1" width="21.983431386190368" opacity="0.28094417252359427" transform="matrix(0.9879369979161324,0.15485634681361884,-0.15485634681361884,0.9879369979161324,613.1674536968628,283.20141229291545)" fill="#00a19d"></use><use xlink:href="#bbburst-shape-10" width="6.52121600884191" opacity="0.935757440216203" transform="matrix(0.9869299760802498,-0.16114968915340017,0.16114968915340017,0.9869299760802498,361.06875035304427,8.814650629319772)" fill="none" stroke="#2c2891"></use><use xlink:href="#bbburst-shape-7" width="18.631434437563108" opacity="0.5455836502284993" transform="matrix(0.7711077708173542,-0.6367046456443449,0.6367046456443449,0.7711077708173542,99.93423176213338,298.42408065479714)" fill="#ffa6d5"></use><use xlink:href="#bbburst-shape-8" width="10.632601283198433" opacity="0.8387829346235898" transform="matrix(0.7863769775775425,-0.6177469134977601,0.6177469134977601,0.7863769775775425,156.617252047283,160.84997139604212)" fill="none" stroke="#00a19d"></use><use xlink:href="#bbburst-shape-13" width="7.317148137970996" opacity="0.8841150008121075" transform="matrix(0.8193725306232824,-0.5732614203485161,0.5732614203485161,0.8193725306232824,124.09662240695826,102.95575995249044)" fill="none" stroke="#00a19d"></use><use xlink:href="#bbburst-shape-4" width="27.417501050640233" opacity="0.23209603282259195" transform="matrix(0.9558806038766807,0.293755461451106,-0.293755461451106,0.9558806038766807,848.5040444103756,-17.909249171425643)" fill="#00a19d"></use><use xlink:href="#bbburst-shape-13" width="15.773946593964807" opacity="0.6593702566541935" transform="matrix(0.7859835594375805,-0.6182473973207097,0.6182473973207097,0.7859835594375805,20.01365595147766,177.06492203992053)" fill="none" stroke="#ffa6d5"></use><use xlink:href="#bbburst-shape-8" width="6.752583591863701" opacity="0.8630488463640328" transform="matrix(0.9963400075698666,-0.08547858980866604,0.08547858980866604,0.9963400075698666,354.52336777340355,62.86942274910001)" fill="none" stroke="#2c2891"></use><use xlink:href="#bbburst-shape-3" width="6.122260399677853" opacity="0.9012678024189863" transform="matrix(0.9993258106107575,-0.036714087856738874,0.036714087856738874,0.9993258106107575,405.59859993720823,38.17152982889735)" fill="#ffbd9b"></use><use xlink:href="#bbburst-shape-2" width="38.415329055548135" opacity="-0.10877758997079923" transform="matrix(0.8346096712130513,-0.5508418073436714,0.5508418073436714,0.8346096712130513,514.6436939143359,431.3645244060403)" fill="#ffbd9b"></use><use xlink:href="#bbburst-shape-7" width="27.039328412917968" opacity="0.025359873660136478" transform="matrix(0.9666781886589564,-0.25599468660704483,0.25599468660704483,0.9666781886589564,-86.51273580250427,250.80539510161378)" fill="#ffbd9b"></use><use xlink:href="#bbburst-shape-12" width="8.382302706321655" opacity="0.770848625591586" transform="matrix(0.8292475675026,0.5588814469912389,-0.5588814469912389,0.8292475675026,721.8109814224181,49.055596599217836)" fill="none" stroke="#ffbd9b"></use><use xlink:href="#bbburst-shape-12" width="8.294493649853814" opacity="0.7671217469080365" transform="matrix(0.915461922625402,0.4024046076065759,-0.4024046076065759,0.915461922625402,555.0289405538954,-72.64071612147427)" fill="none" stroke="#ffa6d5"></use><use xlink:href="#bbburst-shape-9" width="6.762544610420974" opacity="0.8919224834532444" transform="matrix(0.8812872956268373,-0.47258089526210795,0.47258089526210795,0.8812872956268373,250.11752366999167,24.781333634543216)" fill="none" stroke="#2c2891"></use><use xlink:href="#bbburst-shape-14" width="5.807054828262231" opacity="0.9370508576857991" transform="matrix(0.9708230490216184,-0.23979701309309157,0.23979701309309157,0.9708230490216184,296.6078378986658,-15.567113246671568)" fill="none" stroke="#ff5c58"></use><use xlink:href="#bbburst-shape-13" width="15.688467610441815" opacity="0.6247126805447216" transform="matrix(0.836510818869426,-0.5479504082619177,0.5479504082619177,0.836510818869426,341.3136331507308,44.942294795615)" fill="none" stroke="#00a19d"></use><use xlink:href="#bbburst-shape-3" width="38.29119828504105" opacity="0.22777914200013294" transform="matrix(0.8631492379051788,-0.5049489014778713,0.5049489014778713,0.8631492379051788,355.94565502898786,-235.98255348053442)" fill="#ff5c58"></use><use xlink:href="#bbburst-shape-4" width="35.2783663828931" opacity="0.13148926185815046" transform="matrix(0.9293234653450955,0.36926670139478196,-0.36926670139478196,0.9293234653450955,873.7538399237435,-166.5609947161439)" fill="#2c2891"></use><use xlink:href="#bbburst-shape-13" width="9.767073910289696" opacity="0.7922552961310863" transform="matrix(0.846125340825751,-0.5329839656242078,0.5329839656242078,0.846125340825751,138.8210542431619,-18.408523319678466)" fill="none" stroke="#ffa6d5"></use><use xlink:href="#bbburst-shape-13" width="12.051600496703532" opacity="0.6583791447740082" transform="matrix(0.998392072258902,0.05668571293170292,-0.05668571293170292,0.998392072258902,509.73289136368953,122.65281301738895)" fill="none" stroke="#ffbd9b"></use><use xlink:href="#bbburst-shape-11" width="26.041565424020064" opacity="0.26659385734627017" transform="matrix(0.9698987619605429,0.24350850405562047,-0.24350850405562047,0.9698987619605429,278.5097487078439,266.1151830686082)" fill="none" stroke="#ff5c58"></use><use xlink:href="#bbburst-shape-5" width="19.062924339696096" opacity="0.5958926414312138" transform="matrix(0.9865582360953508,-0.16341005719486856,0.16341005719486856,0.9865582360953508,205.85149875018743,-130.24064775660236)" fill="#2c2891"></use><use xlink:href="#bbburst-shape-4" width="24.1721156469496" opacity="0.4636384851914066" transform="matrix(0.9783508682535602,0.20695308305870874,-0.20695308305870874,0.9783508682535602,338.89950759380224,-195.85482092815212)" fill="#ff5c58"></use><use xlink:href="#bbburst-shape-11" width="5.877341332910493" opacity="0.9033999076429274" transform="matrix(0.9198134322886254,-0.3923560242705829,0.3923560242705829,0.9198134322886254,226.16123210789178,-7.939913703700995)" fill="none" stroke="#ffa6d5"></use><use xlink:href="#bbburst-shape-3" width="5.536223029984209" opacity="0.9905954549206588" transform="matrix(0.9720266744888347,-0.23487048363337792,0.23487048363337792,0.9720266744888347,304.81942166844345,7.879183245938634)" fill="#ffa6d5"></use><use xlink:href="#bbburst-shape-4" width="11.084646488402926" opacity="0.7942319487564721" transform="matrix(0.7744153420596968,-0.6326775466085096,0.6326775466085096,0.7744153420596968,50.4177179291932,85.47810846022298)" fill="#ffa6d5"></use><use xlink:href="#bbburst-shape-2" width="13.596539163632633" opacity="0.6624016940878229" transform="matrix(0.9008806256914785,0.43406692831144167,-0.43406692831144167,0.9008806256914785,705.9735442627319,99.1879212862599)" fill="#ffa6d5"></use><use xlink:href="#bbburst-shape-9" width="9.247631433626863" opacity="0.8093740333179444" transform="matrix(0.746294454568961,-0.6656159456320266,0.6656159456320266,0.746294454568961,212.23151201216194,79.22703659867102)" fill="none" stroke="#2c2891"></use><use xlink:href="#bbburst-shape-2" width="30.926389075299145" opacity="0.3318415390438648" transform="matrix(0.958419968334363,-0.2853614625312229,0.2853614625312229,0.958419968334363,138.32024267794728,-248.73443639652436)" fill="#ffa6d5"></use><use xlink:href="#bbburst-shape-2" width="15.382870640870058" opacity="0.6054127622831786" transform="matrix(0.9999988867092151,0.0014921730229492203,-0.0014921730229492203,0.9999988867092151,436.193791597674,172.20353476038537)" fill="#ff5c58"></use><use xlink:href="#bbburst-shape-12" width="24.29694967208991" opacity="0.33856170147211795" transform="matrix(0.868696943736238,-0.4953439410584522,0.4953439410584522,0.868696943736238,467.5597638188355,169.2589011080994)" fill="none" stroke="#ffa6d5"></use><use xlink:href="#bbburst-shape-8" width="23.460015619892953" opacity="0.42959424684356384" transform="matrix(0.9981950340930118,0.060055590181522636,-0.060055590181522636,0.9981950340930118,339.3384997229771,246.1081965132998)" fill="none" stroke="#00a19d"></use><use xlink:href="#bbburst-shape-13" width="37.824163819813656" opacity="0.0045058341947440406" transform="matrix(0.8910892906834003,-0.4538280247289216,0.4538280247289216,0.8910892906834003,562.949669924168,-212.65002532261872)" fill="none" stroke="#ffbd9b"></use><use xlink:href="#bbburst-shape-2" width="15.212767830942552" opacity="0.6845155837751669" transform="matrix(0.736121216283169,0.6768497284758176,-0.6768497284758176,0.736121216283169,720.8222176736704,230.99933526387468)" fill="#00a19d"></use><use xlink:href="#bbburst-shape-11" width="5.864245451638599" opacity="0.8283049710049709" transform="matrix(0.8402782067363717,-0.5421554530611192,0.5421554530611192,0.8402782067363717,256.6811464666917,79.06114629113165)" fill="none" stroke="#2c2891"></use><use xlink:href="#bbburst-shape-14" width="23.40336055669698" opacity="0.40831257401617915" transform="matrix(0.9983557616658433,-0.057321663868156944,0.057321663868156944,0.9983557616658433,537.1085890950355,204.84713497684822)" fill="none" stroke="#00a19d"></use><use xlink:href="#bbburst-shape-11" width="17.570725229518736" opacity="0.5546723109665346" transform="matrix(0.775534720590462,0.6313049161527844,-0.6313049161527844,0.775534720590462,567.4020309508406,268.4682150930858)" fill="none" stroke="#00a19d"></use><use xlink:href="#bbburst-shape-12" width="19.15233107266484" opacity="0.4616133260581795" transform="matrix(0.8271091527285906,-0.5620413236342974,0.5620413236342974,0.8271091527285906,49.67893372923123,286.3476981232775)" fill="none" stroke="#ff5c58"></use><use xlink:href="#bbburst-shape-6" width="18.07467690091401" opacity="0.5461321817809368" transform="matrix(0.821359055293485,0.5704115201215644,-0.5704115201215644,0.821359055293485,495.24014918936166,227.43371004462665)" fill="#ff5c58"></use><use xlink:href="#bbburst-shape-2" width="16.613349194795813" opacity="0.5214974872579644" transform="matrix(0.9785332650982979,0.2060889349190399,-0.2060889349190399,0.9785332650982979,259.0046864891544,3.5821689871325475)" fill="#00a19d"></use><use xlink:href="#bbburst-shape-11" width="6.13289909224363" opacity="0.9599385784322427" transform="matrix(0.8983622835808724,-0.43925528732089275,0.43925528732089275,0.8983622835808724,203.58077357191777,43.82750928584829)" fill="none" stroke="#ffa6d5"></use><use xlink:href="#bbburst-shape-2" width="11.491147389093948" opacity="0.7310054392870569" transform="matrix(0.9964677158195068,0.08397673088096855,-0.08397673088096855,0.9964677158195068,471.36525287415594,-112.02500483071856)" fill="#00a19d"></use><use xlink:href="#bbburst-shape-1" width="7.926377451257499" opacity="0.8791811781739184" transform="matrix(0.7632889838398429,-0.6460572166215156,0.6460572166215156,0.7632889838398429,192.5156161461489,90.57603517808485)" fill="#ff5c58"></use><use xlink:href="#bbburst-shape-4" width="9.816748233304645" opacity="0.6863372771940279" transform="matrix(0.9063392750301164,0.42255072895201956,-0.42255072895201956,0.9063392750301164,705.7122832772304,34.362308393248384)" fill="#2c2891"></use><use xlink:href="#bbburst-shape-14" width="19.48448928728541" opacity="0.5206285695953433" transform="matrix(0.9392522346329788,-0.3432276791532928,0.3432276791532928,0.9392522346329788,225.60505843181312,-186.22948558170623)" fill="none" stroke="#ffa6d5"></use><use xlink:href="#bbburst-shape-12" width="22.130588899450558" opacity="0.33229579109860075" transform="matrix(0.8868481031031943,-0.4620610804020027,0.4620610804020027,0.8868481031031943,164.1416798528042,347.96657873928143)" fill="none" stroke="#00a19d"></use><use xlink:href="#bbburst-shape-11" width="23.570830023560088" opacity="0.545104090501611" transform="matrix(0.9059056628727808,0.4234795508345445,-0.4234795508345445,0.9059056628727808,651.3955583507166,-150.21414566701804)" fill="none" stroke="#ffa6d5"></use><use xlink:href="#bbburst-shape-13" width="16.462734201706592" opacity="0.3912339707638315" transform="matrix(0.7075066842096951,0.706706651870918,-0.706706651870918,0.7075066842096951,694.5585536093122,384.55250367109204)" fill="none" stroke="#ffbd9b"></use><use xlink:href="#bbburst-shape-9" width="10.276594725847463" opacity="0.7691433134146398" transform="matrix(0.9989563858041536,-0.04567427351478074,0.04567427351478074,0.9989563858041536,279.8461232666821,-37.25898063560419)" fill="none" stroke="#ffa6d5"></use><use xlink:href="#bbburst-shape-6" width="6.142743958632448" opacity="0.8251483448781556" transform="matrix(0.9393623901150785,0.3429260853847184,-0.3429260853847184,0.9393623901150785,456.7693754239018,36.705113422413774)" fill="#ffbd9b"></use><use xlink:href="#bbburst-shape-11" width="12.289994484305534" opacity="0.7349470999019994" transform="matrix(0.9059537756675915,-0.4233766129034943,0.4233766129034943,0.9059537756675915,164.16019838824138,142.6578844495337)" fill="none" stroke="#ffbd9b"></use><use xlink:href="#bbburst-shape-1" width="14.940863386297671" opacity="0.635241837567287" transform="matrix(0.8141428709936878,-0.5806646068171845,0.5806646068171845,0.8141428709936878,89.04818448816269,225.90153849907676)" fill="#2c2891"></use><use xlink:href="#bbburst-shape-9" width="13.201866502608995" opacity="0.6099377089159392" transform="matrix(0.9980155938606033,0.06296724871762488,-0.06296724871762488,0.9980155938606033,457.4232539404723,-170.8924861421827)" fill="none" stroke="#2c2891"></use><use xlink:href="#bbburst-shape-11" width="9.50576583776187" opacity="0.7811325855696731" transform="matrix(0.8822582521291188,0.47076573425651125,-0.47076573425651125,0.8822582521291188,656.5291841928541,111.56875677536135)" fill="none" stroke="#ffbd9b"></use><use xlink:href="#bbburst-shape-8" width="18.331499589580524" opacity="0.47621897967007987" transform="matrix(0.7570129649996554,-0.6533998552360036,0.6533998552360036,0.7570129649996554,-89.40434942184032,184.83783790358223)" fill="none" stroke="#00a19d"></use><use xlink:href="#bbburst-shape-3" width="5.270543064211541" opacity="0.935107462346344" transform="matrix(0.9388427561381436,-0.34434616194599027,0.34434616194599027,0.9388427561381436,240.7882646765292,3.1852697645168178)" fill="#2c2891"></use><use xlink:href="#bbburst-shape-3" width="8.494870359603159" opacity="0.768435849159377" transform="matrix(0.8826904290223094,-0.4699548983811226,0.4699548983811226,0.8826904290223094,198.21498039330345,152.6556586133483)" fill="#00a19d"></use><use xlink:href="#bbburst-shape-2" width="10.53598608515634" opacity="0.7697064439204704" transform="matrix(0.9879582671361297,-0.1547205946129212,0.1547205946129212,0.9879582671361297,351.64342113646785,-96.28745934399569)" fill="#00a19d"></use><use xlink:href="#bbburst-shape-11" width="7.979137237698694" opacity="0.9100931042400509" transform="matrix(0.940712040444024,-0.3392062159861476,0.3392062159861476,0.940712040444024,265.5656782589508,-15.171690666987217)" fill="none" stroke="#ffa6d5"></use><use xlink:href="#bbburst-shape-8" width="11.134811045591716" opacity="0.7089920125698507" transform="matrix(0.9854690220070423,0.16985525209566948,-0.16985525209566948,0.9854690220070423,590.7084843958698,-21.59156108675387)" fill="none" stroke="#00a19d"></use><use xlink:href="#bbburst-shape-12" width="6.620573508632217" opacity="0.9482935799337973" transform="matrix(0.7664381896782028,-0.642318068718917,0.642318068718917,0.7664381896782028,125.78320461600379,113.54144661993729)" fill="none" stroke="#ffa6d5"></use><use xlink:href="#bbburst-shape-4" width="38.96718882370687" opacity="0.27767478449917593" transform="matrix(0.9897202445955363,-0.14301691311782586,0.14301691311782586,0.9897202445955363,116.52074997681558,-243.6829210071348)" fill="#ffbd9b"></use><use xlink:href="#bbburst-shape-2" width="30.886976950928414" opacity="0.08733862381817603" transform="matrix(0.7656519533722601,-0.6432550709456105,0.6432550709456105,0.7656519533722601,427.16686201106893,388.09478272998984)" fill="#ffa6d5"></use><use xlink:href="#bbburst-shape-13" width="26.038606848780294" opacity="0.2622530208761398" transform="matrix(0.8635541233876569,-0.5042561610730952,0.5042561610730952,0.8635541233876569,420.9093691653654,296.78461253100954)" fill="none" stroke="#00a19d"></use><use xlink:href="#bbburst-shape-7" width="23.58142395146116" opacity="0.5302607711032978" transform="matrix(0.9805210846098915,0.19641385550780754,-0.19641385550780754,0.9805210846098915,485.86472795062014,215.98376257642747)" fill="#00a19d"></use><use xlink:href="#bbburst-shape-9" width="9.389024643036093" opacity="0.7806190423411161" transform="matrix(0.984347670688686,0.17623751930210046,-0.17623751930210046,0.984347670688686,561.8156106551128,28.67932080112297)" fill="none" stroke="#00a19d"></use><use xlink:href="#bbburst-shape-12" width="19.774965002527583" opacity="0.4838408848697503" transform="matrix(0.9316890429214871,0.36325683379675494,-0.36325683379675494,0.9316890429214871,375.2791081974334,-143.88818066850854)" fill="none" stroke="#ff5c58"></use><use xlink:href="#bbburst-shape-2" width="27.47891545149004" opacity="0.3140146687967673" transform="matrix(0.8421130122905534,-0.5393010982103877,0.5393010982103877,0.8421130122905534,256.55346326969044,-226.51479724340373)" fill="#ffbd9b"></use><use xlink:href="#bbburst-shape-7" width="22.01914919212484" opacity="0.37185745709638485" transform="matrix(0.8799927400534715,-0.47498713398699893,0.47498713398699893,0.8799927400534715,480.5929734546518,17.160395212221317)" fill="#00a19d"></use><use xlink:href="#bbburst-shape-3" width="25.12553518712456" opacity="0.375879014294186" transform="matrix(0.9147487967517293,-0.40402306721431575,0.40402306721431575,0.9147487967517293,-17.00421577512381,178.61794398237555)" fill="#ffa6d5"></use><use xlink:href="#bbburst-shape-10" width="16.8793029802641" opacity="0.6169322789586218" transform="matrix(0.9481731280987482,0.31775418038388537,-0.31775418038388537,0.9481731280987482,518.3639723950696,190.42792040826106)" fill="none" stroke="#2c2891"></use><use xlink:href="#bbburst-shape-11" width="13.34896506863505" opacity="0.5848698397720724" transform="matrix(0.9715922004096346,-0.23666135320994966,0.23666135320994966,0.9715922004096346,114.9809066935307,-20.456345889842225)" fill="none" stroke="#ffbd9b"></use><use xlink:href="#bbburst-shape-11" width="10.03723676277635" opacity="0.701808695155747" transform="matrix(0.8436117847499716,-0.5369535888984891,0.5369535888984891,0.8436117847499716,165.6347290853317,198.45411728206471)" fill="none" stroke="#ff5c58"></use><use xlink:href="#bbburst-shape-10" width="25.580226605104848" opacity="0.11810669879448676" transform="matrix(0.9026850885987411,-0.43030179040004346,0.43030179040004346,0.9026850885987411,583.8911862086677,194.07282322422736)" fill="none" stroke="#ff5c58"></use><use xlink:href="#bbburst-shape-8" width="5.382311709927514" opacity="0.9784192574187132" transform="matrix(0.978065337919608,0.2082983311507868,-0.2082983311507868,0.978065337919608,474.3123616722561,15.539375502464509)" fill="none" stroke="#2c2891"></use><use xlink:href="#bbburst-shape-11" width="18.548210238464904" opacity="0.5641145561823726" transform="matrix(0.9927819558426345,-0.11993326541570257,0.11993326541570257,0.9927819558426345,161.6217152837611,-71.41728515993907)" fill="none" stroke="#ffbd9b"></use><use xlink:href="#bbburst-shape-5" width="22.947766794358" opacity="0.24495886804483635" transform="matrix(0.9858004986046508,-0.16792074604057106,0.16792074604057106,0.9858004986046508,227.4919294380557,334.10493745729735)" fill="#ffbd9b"></use><use xlink:href="#bbburst-shape-12" width="6.633198773994654" opacity="0.8294026288586266" transform="matrix(0.9413064844330495,0.3375531104349255,-0.3375531104349255,0.9413064844330495,594.0646731917147,67.39566856178374)" fill="none" stroke="#2c2891"></use><use xlink:href="#bbburst-shape-11" width="21.8233484126806" opacity="0.40682461601984543" transform="matrix(0.9689921996378601,0.2470913131637402,-0.2470913131637402,0.9689921996378601,315.06452129462184,212.48413987146694)" fill="none" stroke="#ffa6d5"></use><use xlink:href="#bbburst-shape-3" width="24.954065268905847" opacity="0.4668344724905126" transform="matrix(0.9457961468695142,0.32476090985027795,-0.32476090985027795,0.9457961468695142,435.2911798759004,-207.6141731464918)" fill="#2c2891"></use><use xlink:href="#bbburst-shape-3" width="31.64370528369379" opacity="0.3899762175972853" transform="matrix(0.8383182991811424,-0.5451810976712569,0.5451810976712569,0.8383182991811424,301.94312052752434,-166.56434222183543)" fill="#ffa6d5"></use><use xlink:href="#bbburst-shape-1" width="12.06158460745081" opacity="0.7132458296431904" transform="matrix(0.9729102917241392,0.23118296705694014,-0.23118296705694014,0.9729102917241392,474.6045789966435,-119.02362867207944)" fill="#2c2891"></use><use xlink:href="#bbburst-shape-14" width="23.21800982412357" opacity="0.4443318206533231" transform="matrix(0.85284343433895,-0.522166713325299,0.522166713325299,0.85284343433895,-66.54635114497214,98.45925567284536)" fill="none" stroke="#ffbd9b"></use><use xlink:href="#bbburst-shape-2" width="34.40216448446227" opacity="0.04496164555379667" transform="matrix(0.9267800667692893,0.37560445662839476,-0.37560445662839476,0.9267800667692893,766.6881156189993,-338.6712291835607)" fill="#ffa6d5"></use><use xlink:href="#bbburst-shape-3" width="34.16190021770861" opacity="0.1315407924891" transform="matrix(0.7642398033410993,0.6449321847986483,-0.6449321847986483,0.7642398033410993,791.3188305826953,445.5128002953377)" fill="#00a19d"></use><use xlink:href="#bbburst-shape-14" width="29.081072938874712" opacity="0.292790759562057" transform="matrix(0.964136780369001,-0.26540585664166627,0.26540585664166627,0.964136780369001,32.14465732189734,218.07177277407675)" fill="none" stroke="#ff5c58"></use><use xlink:href="#bbburst-shape-10" width="19.029042484720975" opacity="0.5775737308170203" transform="matrix(0.8607969177461339,-0.5089485891509629,0.5089485891509629,0.8607969177461339,122.22383146983748,-117.74027719779372)" fill="none" stroke="#ffbd9b"></use><use xlink:href="#bbburst-shape-5" width="9.08033571253982" opacity="0.7136310303015634" transform="matrix(0.9999913902388509,-0.004149632293394056,0.004149632293394056,0.9999913902388509,280.5554024259043,61.521168722210064)" fill="#00a19d"></use><use xlink:href="#bbburst-shape-9" width="16.307921950618667" opacity="0.6534756327120088" transform="matrix(0.9029234803931206,-0.4298013361481951,0.4298013361481951,0.9029234803931206,340.48112309188144,142.04211974160933)" fill="none" stroke="#00a19d"></use><use xlink:href="#bbburst-shape-8" width="11.785707188045283" opacity="0.7505161605369264" transform="matrix(0.946168526721137,0.3236744028222697,-0.3236744028222697,0.946168526721137,431.22924451899434,-43.7566438068381)" fill="none" stroke="#ffa6d5"></use><use xlink:href="#bbburst-shape-14" width="9.045884435482753" opacity="0.8635932131238598" transform="matrix(0.9297322773514995,-0.3682361911203111,0.3682361911203111,0.9297322773514995,194.85095173560933,-0.03437156202795677)" fill="none" stroke="#ffbd9b"></use><use xlink:href="#bbburst-shape-9" width="12.249396266203496" opacity="0.6425050972238255" transform="matrix(0.7664801903083714,0.642267948651373,-0.642267948651373,0.7664801903083714,779.2528755817832,-9.352928507754655)" fill="none" stroke="#00a19d"></use><use xlink:href="#bbburst-shape-10" width="19.229626456082357" opacity="0.35557945968000415" transform="matrix(0.997320208024195,-0.0731601166386194,0.0731601166386194,0.997320208024195,86.10760551735734,93.68364621321939)" fill="none" stroke="#2c2891"></use><use xlink:href="#bbburst-shape-4" width="8.145902450822316" opacity="0.8452600414703939" transform="matrix(0.7429163908131506,-0.6693842217001847,0.6693842217001847,0.7429163908131506,148.59590543035398,38.680825157120864)" fill="#2c2891"></use><use xlink:href="#bbburst-shape-10" width="17.066809693880423" opacity="0.525457166952633" transform="matrix(0.7867691638730717,0.6172473432737218,-0.6172473432737218,0.7867691638730717,711.9705977208199,281.1420044149972)" fill="none" stroke="#2c2891"></use><use xlink:href="#bbburst-shape-6" width="9.534220171385941" opacity="0.769145385847785" transform="matrix(0.9982207508087664,-0.059626610290898434,0.059626610290898434,0.9982207508087664,338.20150848794765,99.43629114437124)" fill="#ffbd9b"></use><use xlink:href="#bbburst-shape-9" width="5.7708733556181855" opacity="0.91115153244468" transform="matrix(0.9269966290359279,0.37506965987137136,-0.37506965987137136,0.9269966290359279,586.6793074866451,20.793340338574296)" fill="none" stroke="#00a19d"></use><use xlink:href="#bbburst-shape-8" width="33.587223847971444" opacity="-0.10165554154380385" transform="matrix(0.8227156323285219,-0.5684531540261524,0.5684531540261524,0.8227156323285219,-194.4982064618009,428.22698876411346)" fill="none" stroke="#2c2891"></use><use xlink:href="#bbburst-shape-6" width="7.0592275627445735" opacity="0.8876366929698295" transform="matrix(0.7956186444113709,0.6057977984979911,-0.6057977984979911,0.7956186444113709,622.361867431546,127.18094305107542)" fill="#2c2891"></use><use xlink:href="#bbburst-shape-7" width="19.682065481694146" opacity="0.5386384092767023" transform="matrix(0.970879580049501,0.23956803009355104,-0.23956803009355104,0.970879580049501,315.5605308232371,-108.9833477943609)" fill="#00a19d"></use><use xlink:href="#bbburst-shape-11" width="35.62543861999103" opacity="0.02760529359744368" transform="matrix(0.8733527737258965,-0.48708821852440976,0.48708821852440976,0.8733527737258965,-60.525707217797134,-300.2580571698578)" fill="none" stroke="#ffa6d5"></use><use xlink:href="#bbburst-shape-1" width="8.263219344145746" opacity="0.7878940267271581" transform="matrix(0.833175281233509,0.5530089969805763,-0.5530089969805763,0.833175281233509,687.1148337403631,-1.1168308441153272)" fill="#ffa6d5"></use><use xlink:href="#bbburst-shape-7" width="11.945067854181735" opacity="0.696063130564827" transform="matrix(0.7238629052328411,-0.689943834256,0.689943834256,0.7238629052328411,195.63553916104587,0.8700501681303763)" fill="#2c2891"></use><use xlink:href="#bbburst-shape-9" width="27.53371116222144" opacity="0.17168916653117983" transform="matrix(0.9804079861756184,-0.19697761457350543,0.19697761457350543,0.9804079861756184,273.2013557894063,381.5088359068678)" fill="none" stroke="#ff5c58"></use><use xlink:href="#bbburst-shape-13" width="5.611636631908925" opacity="0.911839829207125" transform="matrix(0.8750959221564885,-0.4839495087559084,0.4839495087559084,0.8750959221564885,177.1163696729273,80.52624546257863)" fill="none" stroke="#ff5c58"></use><use xlink:href="#bbburst-shape-2" width="22.451779807124126" opacity="0.27280146763908153" transform="matrix(0.7603480348122242,0.6495158704428928,-0.6495158704428928,0.7603480348122242,962.3667499477274,-12.912407120492333)" fill="#ffa6d5"></use><use xlink:href="#bbburst-shape-2" width="17.52569936271711" opacity="0.5308299501048716" transform="matrix(0.7073716741972677,-0.7068417889056606,0.7068417889056606,0.7073716741972677,127.60794641417755,-87.22634635513205)" fill="#2c2891"></use><use xlink:href="#bbburst-shape-12" width="37.718166913737015" opacity="0.1989540986279188" transform="matrix(0.88794805403316,0.4599437501898731,-0.4599437501898731,0.88794805403316,243.63761710711526,194.84899171673692)" fill="none" stroke="#00a19d"></use><use xlink:href="#bbburst-shape-12" width="20.900956205515982" opacity="0.561638643773501" transform="matrix(0.8923939929075575,-0.45125709016314214,0.45125709016314214,0.8923939929075575,346.71296308900577,190.0769005152507)" fill="none" stroke="#ffa6d5"></use><use xlink:href="#bbburst-shape-2" width="4.608785059343781" opacity="0.954008055506015" transform="matrix(0.9917187960750362,0.1284283049466927,-0.1284283049466927,0.9917187960750362,466.8139226939954,13.698274775356765)" fill="#00a19d"></use><use xlink:href="#bbburst-shape-4" width="13.934443168418463" opacity="0.6334059861634089" transform="matrix(0.896496287088523,-0.4430512467384473,0.4430512467384473,0.896496287088523,180.619813393152,205.50904853602316)" fill="#ff5c58"></use><use xlink:href="#bbburst-shape-2" width="25.023824349376234" opacity="0.29558718168186626" transform="matrix(0.865228423417257,0.5013778767665041,-0.5013778767665041,0.865228423417257,681.1851029219403,351.1491665247684)" fill="#00a19d"></use><use xlink:href="#bbburst-shape-4" width="37.298863011698245" opacity="0.14718095660788544" transform="matrix(0.9796930029210282,0.200503416498518,-0.200503416498518,0.9796930029210282,296.1545641105447,-341.70306666032394)" fill="#2c2891"></use><use xlink:href="#bbburst-shape-4" width="12.258681205845757" opacity="0.70258742503103" transform="matrix(0.826024728035981,0.5636338782162438,-0.5636338782162438,0.826024728035981,576.7642700876618,192.67235703147634)" fill="#2c2891"></use><use xlink:href="#bbburst-shape-4" width="14.649779320607866" opacity="0.6461811455979475" transform="matrix(0.7620261623240555,0.6475462361358238,-0.6475462361358238,0.7620261623240555,720.3588990408697,-54.010825959678414)" fill="#00a19d"></use><use xlink:href="#bbburst-shape-12" width="10.28880105553181" opacity="0.6718426566087491" transform="matrix(0.9999597609725437,0.00897086594110945,-0.00897086594110945,0.9999597609725437,313.1789502107019,120.51864534668766)" fill="none" stroke="#ffbd9b"></use><use xlink:href="#bbburst-shape-13" width="6.533635218601366" opacity="0.8677888175288044" transform="matrix(0.9817715231564281,0.19006492658854007,-0.19006492658854007,0.9817715231564281,431.3596251699114,-36.00039664909758)" fill="none" stroke="#2c2891"></use><use xlink:href="#bbburst-shape-12" width="8.016228292519775" opacity="0.8133734432262256" transform="matrix(0.9951997022495359,-0.09786497147823153,0.09786497147823153,0.9951997022495359,287.24444272661407,-44.67149753378101)" fill="none" stroke="#ffa6d5"></use><use xlink:href="#bbburst-shape-14" width="9.224619116773486" opacity="0.7348176146688989" transform="matrix(0.8531358218437608,0.521688862720847,-0.521688862720847,0.8531358218437608,487.9094441512889,32.016186813748675)" fill="none" stroke="#ff5c58"></use><use xlink:href="#bbburst-shape-2" width="31.160160272081765" opacity="0.14108322379318827" transform="matrix(0.7110262157426579,0.703165500097008,-0.703165500097008,0.7110262157426579,942.2546556278523,-169.88314904179225)" fill="#2c2891"></use><use xlink:href="#bbburst-shape-10" width="11.044660441200614" opacity="0.6984335768005134" transform="matrix(0.9995052682996896,-0.03145184638722432,0.03145184638722432,0.9995052682996896,286.1046092580626,-95.74880583246608)" fill="none" stroke="#ffa6d5"></use><use xlink:href="#bbburst-shape-8" width="8.69583841661369" opacity="0.7455436579142434" transform="matrix(0.7119318271018223,0.7022485838785728,-0.7022485838785728,0.7119318271018223,569.7607804905879,150.09671781337482)" fill="none" stroke="#ffa6d5"></use><use xlink:href="#bbburst-shape-12" width="17.90253359745782" opacity="0.5389053194057721" transform="matrix(0.7112891160994316,-0.7028995613304146,0.7028995613304146,0.7112891160994316,-71.09794699553336,218.51660955823195)" fill="none" stroke="#2c2891"></use><use xlink:href="#bbburst-shape-4" width="36.27815971464765" opacity="0.17949062414944728" transform="matrix(0.8521268991889159,0.5233352154008778,-0.5233352154008778,0.8521268991889159,229.6630615580218,-11.067638555897531)" fill="#00a19d"></use><use xlink:href="#bbburst-shape-9" width="7.342927387161723" opacity="0.8199360784588632" transform="matrix(0.7074162805304419,0.7067971463160241,-0.7067971463160241,0.7074162805304419,682.1917427619213,33.40028849313228)" fill="none" stroke="#ffa6d5"></use><use xlink:href="#bbburst-shape-11" width="36.56170758913308" opacity="0.2493751162493658" transform="matrix(0.999297676616489,-0.03747203635895641,0.03747203635895641,0.999297676616489,82.4839945088404,-181.99568391547663)" fill="none" stroke="#2c2891"></use><use xlink:href="#bbburst-shape-12" width="31.28522655509423" opacity="0.19933885185919054" transform="matrix(0.762300784914032,0.6472229239755425,-0.6472229239755425,0.762300784914032,663.3580007679209,-275.013847730952)" fill="none" stroke="#ffa6d5"></use><use xlink:href="#bbburst-shape-2" width="21.292666854346027" opacity="0.5415763257821646" transform="matrix(0.8038757510009501,-0.594797257015076,0.594797257015076,0.8038757510009501,351.8683800847492,28.06879333715608)" fill="#ffa6d5"></use><use xlink:href="#bbburst-shape-4" width="40.33941633008689" opacity="-0.10025546406617591" transform="matrix(0.8343905328058188,0.5511736920100794,-0.5511736920100794,0.8343905328058188,250.89128847305332,-292.2925462793272)" fill="#ff5c58"></use><use xlink:href="#bbburst-shape-14" width="23.78130589329705" opacity="0.46189869796590155" transform="matrix(0.8832997279579493,0.4688086929541866,-0.4688086929541866,0.8832997279579493,340.259698277704,-9.718238102012322)" fill="none" stroke="#00a19d"></use><use xlink:href="#bbburst-shape-5" width="23.4714175630593" opacity="0.11359350755789166" transform="matrix(0.8805534043045353,0.47394694024510126,-0.47394694024510126,0.8805534043045353,443.64707194608235,417.3442821659205)" fill="#00a19d"></use><use xlink:href="#bbburst-shape-14" width="26.739150089994325" opacity="0.30048978051460595" transform="matrix(0.9999155872152786,0.012993015197583483,-0.012993015197583483,0.9999155872152786,657.6321638703395,-168.72915300670743)" fill="none" stroke="#ffbd9b"></use><use xlink:href="#bbburst-shape-12" width="5.211593499262969" opacity="0.8739262830073433" transform="matrix(0.9779970191914655,-0.2086188640861802,0.2086188640861802,0.9779970191914655,301.53645868694434,-46.01117547787641)" fill="none" stroke="#2c2891"></use><use xlink:href="#bbburst-shape-7" width="7.379139729536169" opacity="0.9506681102520048" transform="matrix(0.806525161979569,-0.5911997658100263,0.5911997658100263,0.806525161979569,169.59430866375988,59.324153206325434)" fill="#ffbd9b"></use><use xlink:href="#bbburst-shape-3" width="7.358774710552095" opacity="0.8526037763393307" transform="matrix(0.9274892571947185,0.37384980645760585,-0.37384980645760585,0.9274892571947185,607.5425456399905,2.629969779292935)" fill="#ffa6d5"></use><use xlink:href="#bbburst-shape-5" width="19.007361359709908" opacity="0.628299452138998" transform="matrix(0.7380588694760999,0.6747363227125551,-0.6747363227125551,0.7380588694760999,651.4992002284539,-68.5136433830175)" fill="#2c2891"></use><use xlink:href="#bbburst-shape-14" width="8.028577150491614" opacity="0.8817929988905804" transform="matrix(0.9963612368494084,0.08523077908782252,-0.08523077908782252,0.9963612368494084,378.02246038927365,-9.752641085207756)" fill="none" stroke="#ff5c58"></use><use xlink:href="#bbburst-shape-10" width="11.8075462911767" opacity="0.6842354025889492" transform="matrix(0.9092696185371631,0.41620759340175634,-0.41620759340175634,0.9092696185371631,422.2825595151817,64.10533802197023)" fill="none" stroke="#ff5c58"></use><use xlink:href="#bbburst-shape-5" width="6.8628631324159866" opacity="0.9377882587461904" transform="matrix(0.9235898865791005,0.3833819523775269,-0.3833819523775269,0.9235898865791005,550.8491636422693,57.235866577884735)" fill="#ff5c58"></use><use xlink:href="#bbburst-shape-14" width="9.308858383638196" opacity="0.8035692284912677" transform="matrix(0.9746365603774453,-0.22379359949655067,0.22379359949655067,0.9746365603774453,334.40114735219856,94.88885093485789)" fill="none" stroke="#00a19d"></use><use xlink:href="#bbburst-shape-10" width="7.969671738321658" opacity="0.8345847516625671" transform="matrix(0.9068185794075353,0.4215211311919007,-0.4215211311919007,0.9068185794075353,606.9347570700854,-25.904256375436944)" fill="none" stroke="#ffbd9b"></use><use xlink:href="#bbburst-shape-13" width="5.236881375596274" opacity="0.970627705745228" transform="matrix(0.9581845863580251,0.28615083167081723,-0.28615083167081723,0.9581845863580251,516.5000381001425,28.387090454619283)" fill="none" stroke="#ffa6d5"></use><use xlink:href="#bbburst-shape-13" width="9.447836060825434" opacity="0.7448635912791045" transform="matrix(0.9931871211622526,-0.11653043532672866,0.11653043532672866,0.9931871211622526,405.19505241999826,103.22322376117086)" fill="none" stroke="#2c2891"></use><use xlink:href="#bbburst-shape-3" width="30.649840022059045" opacity="0.17460665588738367" transform="matrix(0.867860829080315,0.49680738858035134,-0.49680738858035134,0.867860829080315,404.4235681233318,369.5818382271701)" fill="#2c2891"></use><use xlink:href="#bbburst-shape-3" width="30.87731344700585" opacity="0.3524825090906931" transform="matrix(0.9993547034394514,-0.0359190299624886,0.0359190299624886,0.9993547034394514,78.87612978544519,-9.224674444171)" fill="#00a19d"></use><use xlink:href="#bbburst-shape-14" width="22.961380876909885" opacity="0.39929998248318477" transform="matrix(0.982410269299753,-0.18673527458513792,0.18673527458513792,0.982410269299753,270.33948442075825,-257.5501195908414)" fill="none" stroke="#00a19d"></use><use xlink:href="#bbburst-shape-13" width="13.068476384421285" opacity="0.7382370987989575" transform="matrix(0.7429668090595206,0.6693282607479785,-0.6693282607479785,0.7429668090595206,621.8045203641846,-11.961138938659644)" fill="none" stroke="#ffbd9b"></use><use xlink:href="#bbburst-shape-8" width="9.189838461869705" opacity="0.7166827647997941" transform="matrix(0.9560177773487167,-0.29330872710033606,0.29330872710033606,0.9560177773487167,367.69489881104886,-71.94412892278598)" fill="none" stroke="#ffbd9b"></use><use xlink:href="#bbburst-shape-7" width="7.2367533012800385" opacity="0.8043210069061819" transform="matrix(0.8797241295950899,-0.47548444328722395,0.47548444328722395,0.8797241295950899,127.43776408438063,88.40610774320714)" fill="#00a19d"></use><use xlink:href="#bbburst-shape-11" width="15.201169867104586" opacity="0.6227293509350535" transform="matrix(0.8906055293228592,-0.4547766387354893,0.4547766387354893,0.8906055293228592,125.86650882197208,-99.70935609213251)" fill="none" stroke="#2c2891"></use><use xlink:href="#bbburst-shape-5" width="8.715364650914323" opacity="0.8311212575114959" transform="matrix(0.9990513573624596,-0.04354750684283588,0.04354750684283588,0.9990513573624596,359.1253852262212,-72.98631422889002)" fill="#00a19d"></use><use xlink:href="#bbburst-shape-5" width="8.831645568852052" opacity="0.8505239754389774" transform="matrix(0.8585159478929746,-0.5127868633393677,0.5127868633393677,0.8585159478929746,130.91665101861045,88.91023334236218)" fill="#00a19d"></use><use xlink:href="#bbburst-shape-10" width="10.193837843895874" opacity="0.7162005546154805" transform="matrix(0.9892808142320303,-0.14602558197936108,0.14602558197936108,0.9892808142320303,344.8276800400323,132.47299334786408)" fill="none" stroke="#00a19d"></use><use xlink:href="#bbburst-shape-9" width="14.363390043821394" opacity="0.7226189988081365" transform="matrix(0.9205678878444684,0.3905825954514284,-0.3905825954514284,0.9205678878444684,460.7951357161612,116.53424282593113)" fill="none" stroke="#2c2891"></use><use xlink:href="#bbburst-shape-10" width="8.444764561940879" opacity="0.7365757055923978" transform="matrix(0.7945336110655965,-0.6072201749670901,0.6072201749670901,0.7945336110655965,263.25703491119293,130.15662009219847)" fill="none" stroke="#ffbd9b"></use><use xlink:href="#bbburst-shape-8" width="6.294431271353766" opacity="0.8918312589036784" transform="matrix(0.9421437245708787,-0.3352091917768847,0.3352091917768847,0.9421437245708787,215.41617625851623,34.67453264536175)" fill="none" stroke="#00a19d"></use><use xlink:href="#bbburst-shape-10" width="22.55932705273585" opacity="0.15408251926303107" transform="matrix(0.7365586999304803,0.6763736257104653,-0.6763736257104653,0.7365586999304803,882.9594365671712,407.88873600032576)" fill="none" stroke="#ffa6d5"></use><use xlink:href="#bbburst-shape-13" width="25.75138326669271" opacity="0.20459465987066672" transform="matrix(0.9512468549766785,-0.30843057711092453,0.30843057711092453,0.9512468549766785,568.8734423555946,211.61934086039076)" fill="none" stroke="#2c2891"></use><use xlink:href="#bbburst-shape-9" width="7.148625968782086" opacity="0.8773902569897398" transform="matrix(0.9907812229621854,-0.13547165100328667,0.13547165100328667,0.9907812229621854,378.7550504905247,-37.25929226414763)" fill="none" stroke="#ffa6d5"></use><use xlink:href="#bbburst-shape-10" width="6.452175487574512" opacity="0.9345178834921813" transform="matrix(0.9415410093393821,-0.3368983937809405,0.3368983937809405,0.9415410093393821,276.7507432936178,50.096008837458385)" fill="none" stroke="#ffa6d5"></use><use xlink:href="#bbburst-shape-1" width="12.556954477191328" opacity="0.5774079180163807" transform="matrix(0.9033009324494753,-0.4290074887876765,0.4290074887876765,0.9033009324494753,72.7923072510523,158.35439254051397)" fill="#2c2891"></use><use xlink:href="#bbburst-shape-3" width="29.235789025873157" opacity="0.4717892923035174" transform="matrix(0.9896205485021904,-0.14370514946314186,0.14370514946314186,0.9896205485021904,393.8942892767875,-222.09314821151514)" fill="#00a19d"></use><use xlink:href="#bbburst-shape-10" width="7.981647811148304" opacity="0.799417902113239" transform="matrix(0.9999966377638259,0.002593156579096009,-0.002593156579096009,0.9999966377638259,445.4013248576614,76.20795437252633)" fill="none" stroke="#ffa6d5"></use><use xlink:href="#bbburst-shape-3" width="12.364120285939071" opacity="0.6591468452597506" transform="matrix(0.7784614339354812,0.627692437325092,-0.627692437325092,0.7784614339354812,498.0018289323465,45.26297894713343)" fill="#00a19d"></use><use xlink:href="#bbburst-shape-6" width="8.692779007726063" opacity="0.8417625952638761" transform="matrix(0.9337906934109355,-0.35781970445899747,0.35781970445899747,0.9337906934109355,323.6937423397576,21.226630495581844)" fill="#00a19d"></use><use xlink:href="#bbburst-shape-7" width="25.461823476736605" opacity="0.28192151640652496" transform="matrix(0.9552702632179184,0.2957342121087259,-0.2957342121087259,0.9552702632179184,438.0248277344801,-301.8025896453949)" fill="#ffa6d5"></use></svg>